<?xml version="1.0" encoding="UTF-8"?>
<svg width="458px" height="323px" viewBox="0 0 458 323" version="1.1" xmlns="http://www.w3.org/2000/svg" xmlns:xlink="http://www.w3.org/1999/xlink">
    <defs>
        <linearGradient x1="50.2060097%" y1="0%" x2="50.0063311%" y2="0%" id="linearGradient-1">
            <stop stop-color="#D500F9" offset="0%" />
            <stop stop-color="#AA00FF" offset="100%" />
        </linearGradient>
    </defs>
    <g fill="none">
        <path d="M297.205575,237.535322 L372.788328,161.578397 L297.205575,85.6214724 L221.622822,161.578397 L297.205575,237.535322 Z M141.49883,172.206061 C135.658247,166.336564 135.654226,156.824271 141.49883,150.950733 L286.630264,5.10082655 C292.470847,-0.76867021 301.936282,-0.77271114 307.780886,5.10082655 L452.91232,150.950733 C458.752903,156.82023 458.756924,166.332524 452.91232,172.206061 L307.780886,318.055968 C301.940303,323.925465 292.474868,323.929506 286.630264,318.055968 L141.49883,172.206061 Z" fill="url(#linearGradient-1)" fill-rule="nonzero" />
        <g fill-rule="nonzero" fill="#000000">
            <path d="M160.794425,237.535322 L236.377178,161.578397 L160.794425,85.6214724 L85.2116723,161.578397 L160.794425,237.535322 Z M5.0876799,172.206061 C-0.75290309,166.336564 -0.75692411,156.824271 5.0876799,150.950733 L150.219114,5.10082655 C156.059697,-0.76867021 165.525132,-0.77271114 171.369736,5.10082655 L316.50117,150.950733 C322.341753,156.82023 322.345774,166.332524 316.50117,172.206061 L171.369736,318.055968 C165.529153,323.925465 156.063718,323.929506 150.219114,318.055968 L5.0876799,172.206061 Z" id="path-2" />
        </g>
        <g fill="#252A39">
            <path d="M160.794425,237.535322 L236.377178,161.578397 L160.794425,85.6214724 L85.2116723,161.578397 L160.794425,237.535322 Z M5.0876799,172.206061 C-0.75290309,166.336564 -0.75692411,156.824271 5.0876799,150.950733 L150.219114,5.10082655 C156.059697,-0.76867021 165.525132,-0.77271114 171.369736,5.10082655 L316.50117,150.950733 C322.341753,156.82023 322.345774,166.332524 316.50117,172.206061 L171.369736,318.055968 C165.529153,323.925465 156.063718,323.929506 150.219114,318.055968 L5.0876799,172.206061 Z" id="path-2" />
        </g>
        <polygon fill="#AA00FF" fill-rule="nonzero" points="221.5 162 297 85.5 243 49 147.5 145" />
    </g>
</svg>